HIERARCHY
ROOT hip
{
  OFFSET 0 0 0
  CHANNELS 6 Xposition Yposition Zposition Zrotation Yrotation Xrotation
  JOINT abdomen
  {
    OFFSET 0 20.6881 -0.73152
    CHANNELS 3 Zrotation Xrotation Yrotation
    JOINT chest
    {
      OFFSET 0 11.7043 -0.48768
      CHANNELS 3 Zrotation Xrotation Yrotation
      JOINT neck
      {
        OFFSET 0 22.1894 -2.19456
        CHANNELS 3 Zrotation Xrotation Yrotation
        JOINT head
        {
          OFFSET -0.24384 7.07133 1.2192
          CHANNELS 3 Zrotation Xrotation Yrotation
          JOINT leftEye
          {
            OFFSET 4.14528 8.04674 8.04672
            CHANNELS 3 Zrotation Xrotation Yrotation
            End Site
            {
              OFFSET 1 0 0
            }
          }
          JOINT rightEye
          {
            OFFSET -3.6576 8.04674 8.04672
            CHANNELS 3 Zrotation Xrotation Yrotation
            End Site
            {
              OFFSET 1 0 0
            }
          }
        }
      }
      JOINT rCollar
      {
        OFFSET -2.68224 19.2634 -4.8768
        CHANNELS 3 Zrotation Xrotation Yrotation
        JOINT rShldr
        {
          OFFSET -8.77824 -1.95073 1.46304
          CHANNELS 3 Zrotation Xrotation Yrotation
          JOINT rForeArm
          {
            OFFSET -28.1742 -1.7115 0.48768
            CHANNELS 3 Zrotation Xrotation Yrotation
            JOINT rHand
            {
              OFFSET -22.5879 0.773209 7.07136
              CHANNELS 3 Zrotation Xrotation Yrotation
              JOINT rThumb1
              {
                OFFSET -1.2192 -0.487915 3.41376
                CHANNELS 3 Zrotation Xrotation Yrotation
                JOINT rThumb2
                {
                  OFFSET -3.37035 -0.52449 3.41376
                  CHANNELS 3 Zrotation Xrotation Yrotation
                  End Site
                  {
                    OFFSET -1.78271 -1.18214 1.43049
                  }
                }
              }
              JOINT rIndex1
              {
                OFFSET -7.75947 0.938293 5.60832
                CHANNELS 3 Zrotation Xrotation Yrotation
                JOINT rIndex2
                {
                  OFFSET -2.54057 -0.884171 1.56538
                  CHANNELS 3 Zrotation Xrotation Yrotation
                  End Site
                  {
                    OFFSET -1.62519 -0.234802 1.16502
                  }
                }
              }
              JOINT rMid1
              {
                OFFSET -8.24714 1.18213 3.41376
                CHANNELS 3 Zrotation Xrotation Yrotation
                JOINT rMid2
                {
                  OFFSET -3.10165 -0.590103 1.0647
                  CHANNELS 3 Zrotation Xrotation Yrotation
                  End Site
                  {
                    OFFSET -2.48547 -0.328903 0.83742
                  }
                }
              }
              JOINT rRing1
              {
                OFFSET -8.82822 0.546677 1.51678
                CHANNELS 3 Zrotation Xrotation Yrotation
                JOINT rRing2
                {
                  OFFSET -2.60934 -0.819778 -0.0198488
                  CHANNELS 3 Zrotation Xrotation Yrotation
                  End Site
                  {
                    OFFSET -2.33842 -0.294052 0.168128
                  }
                }
              }
              JOINT rPinky1
              {
                OFFSET -8.27202 -0.0477905 -0.4584
                CHANNELS 3 Zrotation Xrotation Yrotation
                JOINT rPinky2
                {
                  OFFSET -1.82734 -0.647385 -0.700984
                  CHANNELS 3 Zrotation Xrotation Yrotation
                  End Site
                  {
                    OFFSET -1.69225 -0.51767 -0.607171
                  }
                }
              }
            }
          }
        }
      }
      JOINT lCollar
      {
        OFFSET 2.68224 19.2634 -4.8768
        CHANNELS 3 Zrotation Xrotation Yrotation
        JOINT lShldr
        {
          OFFSET 8.77824 -1.95073 1.46304
          CHANNELS 3 Zrotation Xrotation Yrotation
          JOINT lForeArm
          {
            OFFSET 28.1742 -1.7115 0.48768
            CHANNELS 3 Zrotation Xrotation Yrotation
            JOINT lHand
            {
              OFFSET 22.5879 0.773209 7.07136
              CHANNELS 3 Zrotation Xrotation Yrotation
              JOINT lThumb1
              {
                OFFSET 1.2192 -0.487915 3.41376
                CHANNELS 3 Zrotation Xrotation Yrotation
                JOINT lThumb2
                {
                  OFFSET 3.37035 -0.52449 3.41376
                  CHANNELS 3 Zrotation Xrotation Yrotation
                  End Site
                  {
                    OFFSET 1.78271 -1.18214 1.43049
                  }
                }
              }
              JOINT lIndex1
              {
                OFFSET 7.75947 0.938293 5.60832
                CHANNELS 3 Zrotation Xrotation Yrotation
                JOINT lIndex2
                {
                  OFFSET 2.54057 -0.884171 1.56538
                  CHANNELS 3 Zrotation Xrotation Yrotation
                  End Site
                  {
                    OFFSET 1.62519 -0.234802 1.16502
                  }
                }
              }
              JOINT lMid1
              {
                OFFSET 8.24714 1.18213 3.41376
                CHANNELS 3 Zrotation Xrotation Yrotation
                JOINT lMid2
                {
                  OFFSET 3.10165 -0.590103 1.0647
                  CHANNELS 3 Zrotation Xrotation Yrotation
                  End Site
                  {
                    OFFSET 2.48547 -0.328903 0.83742
                  }
                }
              }
              JOINT lRing1
              {
                OFFSET 8.82822 0.546677 1.51678
                CHANNELS 3 Zrotation Xrotation Yrotation
                JOINT lRing2
                {
                  OFFSET 2.60934 -0.819778 -0.0198488
                  CHANNELS 3 Zrotation Xrotation Yrotation
                  End Site
                  {
                    OFFSET 2.33842 -0.294052 0.168128
                  }
                }
              }
              JOINT lPinky1
              {
                OFFSET 8.27202 -0.0477905 -0.4584
                CHANNELS 3 Zrotation Xrotation Yrotation
                JOINT lPinky2
                {
                  OFFSET 1.82734 -0.647385 -0.700984
                  CHANNELS 3 Zrotation Xrotation Yrotation
                  End Site
                  {
                    OFFSET 1.69225 -0.51767 -0.607171
                  }
                }
              }
            }
          }
        }
      }
    }
  }
  JOINT rButtock
  {
    OFFSET -8.77824 4.35084 1.2192
    CHANNELS 3 Zrotation Xrotation Yrotation
    JOINT rThigh
    {
      OFFSET 0 -1.70687 -2.19456
      CHANNELS 3 Zrotation Xrotation Yrotation
      JOINT rShin
      {
        OFFSET 0 -36.8199 0.73152
        CHANNELS 3 Zrotation Xrotation Yrotation
        JOINT rFoot
        {
          OFFSET 0.73152 -45.1104 -5.12064
          CHANNELS 3 Zrotation Xrotation Yrotation
          End Site
          {
            OFFSET -1.1221 -3.69964 12.103
          }
        }
      }
    }
  }
  JOINT lButtock
  {
    OFFSET 8.77824 4.35084 1.2192
    CHANNELS 3 Zrotation Xrotation Yrotation
    JOINT lThigh
    {
      OFFSET 0 -1.70687 -2.19456
      CHANNELS 3 Zrotation Xrotation Yrotation
      JOINT lShin
      {
        OFFSET 0 -36.8199 0.73152
        CHANNELS 3 Zrotation Xrotation Yrotation
        JOINT lFoot
        {
          OFFSET -0.73152 -45.1104 -5.12064
          CHANNELS 3 Zrotation Xrotation Yrotation
          End Site
          {
            OFFSET 1.1221 -3.69964 12.103
          }
        }
      }
    }
  }
}
MOTION
Frames:	4
Frame Time:	0.03333
-0.005080000119050965 51.701098680496216 0.0009999999747378752 -13.446299720869792 -25.601299245182606 11.535800187368846 10.332600039594924 4.253200204188783 1.7959999498021453 3.583290127752055 -6.246429977124686 0.5560089880639493 -6.185899986926387 13.29919964426252 -6.806260029142434 6.43225978764687 -21.85609991004222 -11.884699910551436 -0.0 0.0 0.0 -0.0 0.0 0.0 -3.542569903492767e-13 -6.08283024086417e-13 -5.27872975977626e-13 103.53799751495538 51.45949898052232 -52.727598732016055 -27.266000761022305 -43.25729897607784 89.99100031515209 -3.8789101065403155 -47.45960018368486 -8.809910109430838 1.983820093687965e-09 -4.683889969700129e-09 4.74633976330133e-10 3.4077301728497356e-09 -7.928310189167434e-09 8.81675997277809e-10 1.9838300329213448e-09 -4.683899908933509e-09 4.746180238605588e-10 7.730910121524428 5.474879855648998 0.41731399283890674 1.983809955669918e-09 -4.683889969700129e-09 4.746280127901053e-10 2.90554006136521 0.9651829962377875 0.10290200252939893 1.983820093687965e-09 -4.683889969700129e-09 4.746329824067951e-10 10.278599710243157 0.7318009818271524 0.025912300303053633 1.983809955669918e-09 -4.68388003046675e-09 4.746440149558464e-10 2.221669932038622 -0.7334870246959406 -0.20891999872313852 -3.5428499297456976e-13 -6.082789959791392e-13 -5.280709841426097e-13 -40.83399908497609 28.933699022360344 -37.985598465216505 16.49119976040877 -9.15176022361633 -30.716600376881697 1.069879977817151 28.010800446613636 -4.287469824575676 9.569839783174965e-10 8.581759919306136e-09 4.366789860666222e-09 1.7453500550585343e-09 1.453300074209701e-08 7.519550072337764e-09 9.569809965474826e-10 8.581759919306136e-09 4.366789860666222e-09 -7.730910121524428 5.474879855648998 -0.41731399283890674 9.569849722408345e-10 8.58175037764209e-09 4.366789860666222e-09 -2.90554006136521 0.9651829962377875 -0.10290200252939893 9.569819904708206e-10 8.58175037764209e-09 4.366779921432842e-09 -10.278599710243157 0.7318009818271524 -0.025912300303053633 9.56991035173196e-10 8.581759919306136e-09 4.366769982199463e-09 -2.221669932038622 -0.7334870246959406 0.20891999872313852 -2.0321699793705798e-16 0.0 -3.882510030490358e-19 -10.21559975288625 14.531500666768927 0.20323900222119365 0.1099220029232506 29.566000369679692 2.408940058702032 -11.512200176239158 -18.68370072926662 -36.11129893431662 2.0321699793705798e-16 0.0 3.882510030490358e-19 82.23340122944583 -52.58110141960304 77.34429718003734 7.299830416021889 81.84429901280855 -6.841359944400307 -0.07062280198628974 -4.765429814107066 -3.663280180669367
-0.012129999959142879 51.70090198516846 0.0009999999747378752 -13.443799871633567 -25.61559995375732 11.51729976622822 10.344499936676378 4.271479924841853 1.762429996918356 3.58600982370219 -6.245209934584192 0.5474219995342151 -6.169910087192564 13.364600413112685 -6.871169878146004 6.324250164320049 -21.885599497067506 -12.037800308344565 -0.0 0.0 0.0 -0.0 0.0 0.0 -2.536610047143646e-13 -2.7760499647077844e-13 -8.234659708117935e-13 103.55600189360753 51.49760119080723 -52.760899319314454 -27.26519992134212 -43.25960074982814 89.99520088149166 -3.872050035292684 -47.42970103059314 -8.800580071024601 3.3418700294913353e-09 -7.280020113860736e-09 1.1435700259975482e-09 5.722310062789823e-09 -1.2238699671236599e-08 2.0851799981235205e-09 3.3418899079580945e-09 -7.280020113860736e-09 1.143559987371835e-09 7.730910121524428 5.474879855648998 0.41731399283890674 3.3418700294913353e-09 -7.280020113860736e-09 1.1435700259975482e-09 2.90554006136521 0.9651829962377875 0.10290200252939893 3.3418799687247147e-09 -7.280020113860736e-09 1.1435700259975482e-09 10.278599710243157 0.7318009818271524 0.025912300303053633 3.3418700294913353e-09 -7.280020113860736e-09 1.143590003856641e-09 2.221669932038622 -0.7334870246959406 -0.20891999872313852 -2.5378500247454434e-13 -2.776020117888798e-13 -8.236860122382729e-13 -40.78620142116434 28.926400965232187 -37.9709989358656 16.500599808253998 -9.160470422355388 -30.736401095285565 1.0695099736632068 28.0062993519506 -4.286680083952893 1.9039400652936736e-09 9.02223970797404e-09 5.50560018658296e-09 3.4053201075398563e-09 1.517129990001056e-08 9.462250364826429e-09 1.9039400652936736e-09 9.022250044776754e-09 5.50561012581634e-09 -7.730910121524428 5.474879855648998 -0.41731399283890674 1.9039500045270534e-09 9.02223970797404e-09 5.50560018658296e-09 -2.90554006136521 0.9651829962377875 -0.10290200252939893 1.9039400652936736e-09 9.022250044776754e-09 5.505589849780245e-09 -10.278599710243157 0.7318009818271524 -0.025912300303053633 1.9039500045270534e-09 9.022250044776754e-09 5.505579910546866e-09 -2.221669932038622 -0.7334870246959406 0.20891999872313852 -2.0321699793705798e-16 0.0 -3.882510030490358e-19 -10.218200347412733 14.57809963238134 0.2409249978535621 0.10340600245505845 29.520900630590095 2.4076500067225455 -11.50910012412962 -18.66569976570905 -36.13299844530975 2.0321699793705798e-16 0.0 3.882510030490358e-19 82.22469956844324 -52.5632985315314 77.32129993310191 7.308910298749774 81.85250207000173 -6.854099954749673 -0.06757629749262604 -4.769340097406899 -3.645820082716699
-0.017559999832883477 51.70080065727234 0.0009999999747378752 -13.455100419615354 -25.627300067805553 11.51040042139286 10.370499905525678 4.285449796128645 1.7311199828761943 3.5815501370609946 -6.2437098542877285 0.5389679862498847 -6.23117987225534 13.387199801528965 -6.906440121246304 6.376729922807843 -21.85530077790933 -12.097199902235227 -0.0 0.0 0.0 -0.0 0.0 0.0 -1.150149960201494e-13 1.3636499588530414e-13 -8.777339909386128e-13 103.57800193292414 51.53170091023852 -52.79389937828937 -27.26460057224245 -43.26210059906436 89.99860231569832 -3.8667498084967544 -47.4064988779826 -8.79338958937587 3.726129936040356e-09 -7.700669939228387e-09 1.508940021939354e-09 6.367549986156997e-09 -1.2882300018665478e-08 2.7331699085821547e-09 3.726149814507115e-09 -7.700660397564342e-09 1.5089299833136407e-09 7.730910121524428 5.474879855648998 0.41731399283890674 3.726129936040356e-09 -7.700669939228387e-09 1.508940021939354e-09 2.90554006136521 0.9651829962377875 0.10290200252939893 3.726139875273735e-09 -7.700680276031101e-09 1.508940021939354e-09 10.278599710243157 0.7318009818271524 0.025912300303053633 3.726129936040356e-09 -7.700660397564342e-09 1.5089499611727335e-09 2.221669932038622 -0.7334870246959406 -0.20891999872313852 -1.1523500104806908e-13 1.3636499588530414e-13 -8.779819864589723e-13 -40.73480083256541 28.919700549656405 -37.96169963331063 16.50710044079656 -9.166690163368331 -30.75030053024654 1.0688600384749978 27.99870076649896 -4.285299958853727 2.3590700851784022e-09 6.6721000239871845e-09 5.0416300137457715e-09 4.181099934267673e-09 1.1105999986001621e-08 8.6482502100608e-09 2.359059947160355e-09 6.672130239256658e-09 5.041649892212531e-09 -7.730910121524428 5.474879855648998 -0.41731399283890674 2.3590700851784022e-09 6.672110360789899e-09 5.041639952979151e-09 -2.90554006136521 0.9651829962377875 -0.10290200252939893 2.3590700851784022e-09 6.672110360789899e-09 5.0416300137457715e-09 -10.278599710243157 0.7318009818271524 -0.025912300303053633 2.3590700851784022e-09 6.672110360789899e-09 5.041620074512392e-09 -2.221669932038622 -0.7334870246959406 0.20891999872313852 -2.0321699793705798e-16 0.0 -3.882510030490358e-19 -10.216600375599658 14.618300418288742 0.27150799695551403 0.09742739913632877 29.479198910612585 2.4067200337783663 -11.50920001564623 -18.669999369791572 -36.132001237690936 2.0321699793705798e-16 0.0 3.882510030490358e-19 82.2376017957854 -52.54829943611405 77.31380038539325 7.324300422497106 81.86610097663923 -6.87400995618026 -0.06584190302101221 -4.772989979744624 -3.6363201433548573
-0.02049999984592432 51.69960260391235 0.0 -13.460499684154248 -25.637099681717228 11.508799595806138 10.386499623656432 4.295770211964534 1.697859949825994 3.582380005045151 -6.241510106488161 0.5299000029921938 -6.410050146900104 13.342299845472594 -6.879430138173489 6.690650112816683 -21.738099854393788 -11.976999671900405 -0.0 0.0 0.0 -0.0 0.0 0.0 -8.490730248955651e-14 1.7378699819485935e-13 -2.792209954603929e-13 103.59699668900595 51.56230015772018 -52.827199965587766 -27.264300043918972 -43.264200882234135 90.00099971209698 -3.868529926549189 -47.414298954014754 -8.795799792379238 1.7469999677995436e-09 -3.4097200073723263e-09 8.188400147636446e-10 2.978939916559547e-09 -5.665889805726007e-09 1.477839961910001e-09 1.7469999677995436e-09 -3.409700128905567e-09 8.188310197574362e-10 7.730910121524428 5.474879855648998 0.41731399283890674 1.746990028566164e-09 -3.4097200073723263e-09 8.188369832974638e-10 2.90554006136521 0.9651829962377875 0.10290200252939893 1.7469999677995436e-09 -3.4097200073723263e-09 8.188400147636446e-10 10.278599710243157 0.7318009818271524 0.025912300303053633 1.746990028566164e-09 -3.4097100681389465e-09 8.188490097698532e-10 2.221669932038622 -0.7334870246959406 -0.20891999872313852 -8.498779790442075e-14 1.7378699819485935e-13 -2.7944499219703067e-13 -40.71299886873473 28.89469864219957 -37.943401556524165 16.50909997867608 -9.169750088116498 -30.75549830420492 1.0680100000884485 27.98869966200677 -4.283489958723674 1.1620599818535688e-09 2.506090032621048e-09 2.171080021391152e-09 2.052139998523142e-09 4.1402500826469606e-09 3.720070184233497e-09 1.1620500426201892e-09 2.5061200491058538e-09 2.1711000986425785e-09 -7.730910121524428 5.474879855648998 -0.41731399283890674 1.1620599818535688e-09 2.506099971854427e-09 2.171080021391152e-09 -2.90554006136521 0.9651829962377875 -0.10290200252939893 1.1620500426201892e-09 2.506099971854427e-09 2.171080021391152e-09 -10.278599710243157 0.7318009818271524 -0.025912300303053633 1.1620599818535688e-09 2.506099971854427e-09 2.171070082157772e-09 -2.221669932038622 -0.7334870246959406 0.20891999872313852 -2.0321699793705798e-16 0.0 -3.882510030490358e-19 -10.230100244494189 14.624700305541046 0.27936300798571956 0.09760669827214821 29.473000513940796 2.4061200443484627 -11.520499709854372 -18.716400259918053 -36.09450008405298 2.0321699793705798e-16 0.0 3.882510030490358e-19 82.2388995317277 -52.5379004731027 77.30970227189124 7.335080168554678 81.87489826029021 -6.886440046696038 -0.06488729737311698 -4.773889857167774 -3.6328798624472864
